<?xml version="1.0" encoding="UTF-8" standalone="no"?>
<!DOCTYPE svg PUBLIC "-//W3C//DTD SVG 1.1//EN"
 "http://www.w3.org/Graphics/SVG/1.1/DTD/svg11.dtd">
<!-- Generated by graphviz version 14.0.0 (20250921.2048)
 -->
<!-- Title: dispatch Pages: 1 -->
<svg width="932pt" height="1079pt"
 viewBox="0.00 0.00 932.00 1079.00" xmlns="http://www.w3.org/2000/svg" xmlns:xlink="http://www.w3.org/1999/xlink">
<g id="graph0" class="graph" transform="scale(1 1) rotate(0) translate(21.6 1057.74)">
<title>dispatch</title>
<polygon fill="white" stroke="none" points="-21.6,21.6 -21.6,-1057.74 910.59,-1057.74 910.59,21.6 -21.6,21.6"/>
<text xml:space="preserve" text-anchor="middle" x="239.75" y="-1011.24" font-family="Helvetica,sans-Serif" font-size="22.00" fill="#17324d">03 &#160;/ &#160;DISPATCH UND LESENDE KONTROLLE</text>
<!-- request -->
<g id="node1" class="node">
<title>request</title>
<path fill="#f3f6f8" stroke="#97a6b3" stroke-width="1.3" d="M510.11,-1005.64C510.11,-1005.64 365,-1005.64 365,-1005.64 359,-1005.64 353,-999.64 353,-993.64 353,-993.64 353,-981.64 353,-981.64 353,-975.64 359,-969.64 365,-969.64 365,-969.64 510.11,-969.64 510.11,-969.64 516.11,-969.64 522.11,-975.64 522.11,-981.64 522.11,-981.64 522.11,-993.64 522.11,-993.64 522.11,-999.64 516.11,-1005.64 510.11,-1005.64"/>
<text xml:space="preserve" text-anchor="middle" x="437.56" y="-981.84" font-family="Helvetica,sans-Serif" font-size="14.00">Aktueller Nutzerwunsch</text>
</g>
<!-- activation -->
<g id="node2" class="node">
<title>activation</title>
<path fill="#fff2cf" stroke="#bf9840" stroke-width="1.3" d="M536.74,-932.64C536.74,-932.64 338.38,-932.64 338.38,-932.64 332.38,-932.64 326.38,-926.64 326.38,-920.64 326.38,-920.64 326.38,-897.36 326.38,-897.36 326.38,-891.36 332.38,-885.36 338.38,-885.36 338.38,-885.36 536.74,-885.36 536.74,-885.36 542.74,-885.36 548.74,-891.36 548.74,-897.36 548.74,-897.36 548.74,-920.64 548.74,-920.64 548.74,-926.64 542.74,-932.64 536.74,-932.64"/>
<text xml:space="preserve" text-anchor="middle" x="437.56" y="-910.7" font-family="Helvetica,sans-Serif" font-size="14.00">Agent bewertet Anwendbarkeit</text>
<text xml:space="preserve" text-anchor="middle" x="437.56" y="-895.7" font-family="Helvetica,sans-Serif" font-size="14.00">nach Request&#45;Activation&#45;Vertrag</text>
</g>
<!-- request&#45;&gt;activation -->
<g id="edge1" class="edge">
<title>request&#45;&gt;activation</title>
<path fill="none" stroke="#52667a" d="M437.56,-969.25C437.56,-961.15 437.56,-951.25 437.56,-941.88"/>
<polygon fill="#52667a" stroke="#52667a" points="440.18,-942.15 437.56,-934.65 434.93,-942.15 440.18,-942.15"/>
</g>
<!-- normal -->
<g id="node3" class="node">
<title>normal</title>
<path fill="#f3f6f8" stroke="#97a6b3" stroke-width="1.3" d="M876.99,-932.64C876.99,-932.64 710.12,-932.64 710.12,-932.64 704.12,-932.64 698.12,-926.64 698.12,-920.64 698.12,-920.64 698.12,-897.36 698.12,-897.36 698.12,-891.36 704.12,-885.36 710.12,-885.36 710.12,-885.36 876.99,-885.36 876.99,-885.36 882.99,-885.36 888.99,-891.36 888.99,-897.36 888.99,-897.36 888.99,-920.64 888.99,-920.64 888.99,-926.64 882.99,-932.64 876.99,-932.64"/>
<text xml:space="preserve" text-anchor="middle" x="793.56" y="-910.7" font-family="Helvetica,sans-Serif" font-size="14.00">Normale Hilfe oder Klärung</text>
<text xml:space="preserve" text-anchor="middle" x="793.56" y="-895.7" font-family="Helvetica,sans-Serif" font-size="14.00">kein AGDF&#45;Dispatch</text>
</g>
<!-- activation&#45;&gt;normal -->
<g id="edge2" class="edge">
<title>activation&#45;&gt;normal</title>
<path fill="none" stroke="#52667a" d="M549.22,-909C593.76,-909 644.78,-909 688.63,-909"/>
<polygon fill="#52667a" stroke="#52667a" points="688.57,-911.63 696.07,-909 688.57,-906.38 688.57,-911.63"/>
<text xml:space="preserve" text-anchor="middle" x="623.43" y="-913.55" font-family="Helvetica,sans-Serif" font-size="11.00" fill="#354d61">nicht anwendbar / unklar</text>
</g>
<!-- route -->
<g id="node4" class="node">
<title>route</title>
<polygon fill="#ddf4ee" stroke="#2d8b7b" stroke-width="1.3" points="437.56,-837.36 280.03,-806.58 437.55,-775.8 595.09,-806.58 437.56,-837.36"/>
<text xml:space="preserve" text-anchor="middle" x="437.56" y="-800.98" font-family="Helvetica,sans-Serif" font-size="13.00">Verfügbarer Aufrufweg?</text>
</g>
<!-- activation&#45;&gt;route -->
<g id="edge3" class="edge">
<title>activation&#45;&gt;route</title>
<path fill="none" stroke="#52667a" d="M437.56,-884.96C437.56,-873.58 437.56,-859.52 437.56,-846.53"/>
<polygon fill="#52667a" stroke="#52667a" points="440.18,-846.76 437.56,-839.26 434.93,-846.76 440.18,-846.76"/>
<text xml:space="preserve" text-anchor="middle" x="464.56" y="-856.91" font-family="Helvetica,sans-Serif" font-size="11.00" fill="#354d61">anwendbar</text>
</g>
<!-- skill -->
<g id="node5" class="node">
<title>skill</title>
<path fill="#ddf4ee" stroke="#2d8b7b" stroke-width="1.3" d="M637.36,-727.8C637.36,-727.8 475.75,-727.8 475.75,-727.8 469.75,-727.8 463.75,-721.8 463.75,-715.8 463.75,-715.8 463.75,-692.52 463.75,-692.52 463.75,-686.52 469.75,-680.52 475.75,-680.52 475.75,-680.52 637.36,-680.52 637.36,-680.52 643.36,-680.52 649.36,-686.52 649.36,-692.52 649.36,-692.52 649.36,-715.8 649.36,-715.8 649.36,-721.8 643.36,-727.8 637.36,-727.8"/>
<text xml:space="preserve" text-anchor="middle" x="556.56" y="-705.86" font-family="Helvetica,sans-Serif" font-size="14.00">Skill&#45;Weg</text>
<text xml:space="preserve" text-anchor="middle" x="556.56" y="-690.86" font-family="Helvetica,sans-Serif" font-size="14.00">geprüfte Runtime&#45;Bindung</text>
</g>
<!-- route&#45;&gt;skill -->
<g id="edge4" class="edge">
<title>route&#45;&gt;skill</title>
<path fill="none" stroke="#52667a" d="M466.67,-781.01C483.43,-766.87 504.6,-749.01 522.18,-734.17"/>
<polygon fill="#52667a" stroke="#52667a" points="523.78,-736.26 527.81,-729.41 520.39,-732.24 523.78,-736.26"/>
<text xml:space="preserve" text-anchor="middle" x="517.46" y="-747.35" font-family="Helvetica,sans-Serif" font-size="11.00" fill="#354d61">Skill</text>
</g>
<!-- list -->
<g id="node6" class="node">
<title>list</title>
<path fill="#ddf4ee" stroke="#2d8b7b" stroke-width="1.3" d="M419.49,-727.8C419.49,-727.8 219.62,-727.8 219.62,-727.8 213.62,-727.8 207.62,-721.8 207.62,-715.8 207.62,-715.8 207.62,-692.52 207.62,-692.52 207.62,-686.52 213.62,-680.52 219.62,-680.52 219.62,-680.52 419.49,-680.52 419.49,-680.52 425.49,-680.52 431.49,-686.52 431.49,-692.52 431.49,-692.52 431.49,-715.8 431.49,-715.8 431.49,-721.8 425.49,-727.8 419.49,-727.8"/>
<text xml:space="preserve" text-anchor="middle" x="319.56" y="-705.86" font-family="Helvetica,sans-Serif" font-size="14.00">MCP&#45;Weg</text>
<text xml:space="preserve" text-anchor="middle" x="319.56" y="-690.86" font-family="Helvetica,sans-Serif" font-size="14.00">tools/list zeigt Dispatch + Inspect</text>
</g>
<!-- route&#45;&gt;list -->
<g id="edge5" class="edge">
<title>route&#45;&gt;list</title>
<path fill="none" stroke="#52667a" d="M408.69,-781.01C392.06,-766.87 371.08,-749.01 353.64,-734.17"/>
<polygon fill="#52667a" stroke="#52667a" points="355.47,-732.28 348.06,-729.42 352.07,-736.28 355.47,-732.28"/>
<text xml:space="preserve" text-anchor="middle" x="390.93" y="-747.35" font-family="Helvetica,sans-Serif" font-size="11.00" fill="#354d61">MCP</text>
</g>
<!-- contract -->
<g id="node9" class="node">
<title>contract</title>
<path fill="#fff2cf" stroke="#bf9840" stroke-width="1.3" d="M601.11,-512.96C601.11,-512.96 390,-512.96 390,-512.96 384,-512.96 378,-506.96 378,-500.96 378,-500.96 378,-477.68 378,-477.68 378,-471.68 384,-465.68 390,-465.68 390,-465.68 601.11,-465.68 601.11,-465.68 607.11,-465.68 613.11,-471.68 613.11,-477.68 613.11,-477.68 613.11,-500.96 613.11,-500.96 613.11,-506.96 607.11,-512.96 601.11,-512.96"/>
<text xml:space="preserve" text-anchor="middle" x="495.56" y="-491.02" font-family="Helvetica,sans-Serif" font-size="14.00">Ein kanonischer Tool&#45;Vertrag</text>
<text xml:space="preserve" text-anchor="middle" x="495.56" y="-476.02" font-family="Helvetica,sans-Serif" font-size="14.00">Beschreibung · Eingabe · Ausgabe</text>
</g>
<!-- skill&#45;&gt;contract -->
<g id="edge8" class="edge">
<title>skill&#45;&gt;contract</title>
<path fill="none" stroke="#52667a" d="M549.91,-679.98C538.93,-641.67 516.99,-565.12 504.61,-521.91"/>
<polygon fill="#52667a" stroke="#52667a" points="507.2,-521.42 502.61,-514.93 502.15,-522.86 507.2,-521.42"/>
</g>
<!-- call -->
<g id="node7" class="node">
<title>call</title>
<path fill="#ddf4ee" stroke="#2d8b7b" stroke-width="1.3" d="M495.61,-643.52C495.61,-643.52 329.5,-643.52 329.5,-643.52 323.5,-643.52 317.5,-637.52 317.5,-631.52 317.5,-631.52 317.5,-608.24 317.5,-608.24 317.5,-602.24 323.5,-596.24 329.5,-596.24 329.5,-596.24 495.61,-596.24 495.61,-596.24 501.61,-596.24 507.61,-602.24 507.61,-608.24 507.61,-608.24 507.61,-631.52 507.61,-631.52 507.61,-637.52 501.61,-643.52 495.61,-643.52"/>
<text xml:space="preserve" text-anchor="middle" x="412.56" y="-621.58" font-family="Helvetica,sans-Serif" font-size="14.00">tools/call</text>
<text xml:space="preserve" text-anchor="middle" x="412.56" y="-606.58" font-family="Helvetica,sans-Serif" font-size="14.00">Skill + expliziter Zielkontext</text>
</g>
<!-- list&#45;&gt;call -->
<g id="edge6" class="edge">
<title>list&#45;&gt;call</title>
<path fill="none" stroke="#52667a" d="M345.46,-680.24C356.15,-670.78 368.67,-659.71 379.97,-649.71"/>
<polygon fill="#52667a" stroke="#52667a" points="381.45,-651.9 385.33,-644.96 377.98,-647.97 381.45,-651.9"/>
</g>
<!-- inspect -->
<g id="node8" class="node">
<title>inspect</title>
<path fill="#ddf4ee" stroke="#2d8b7b" stroke-width="1.3" d="M346.74,-578.24C346.74,-578.24 190.38,-578.24 190.38,-578.24 184.38,-578.24 178.38,-572.24 178.38,-566.24 178.38,-566.24 178.38,-542.96 178.38,-542.96 178.38,-536.96 184.38,-530.96 190.38,-530.96 190.38,-530.96 346.74,-530.96 346.74,-530.96 352.74,-530.96 358.74,-536.96 358.74,-542.96 358.74,-542.96 358.74,-566.24 358.74,-566.24 358.74,-572.24 352.74,-578.24 346.74,-578.24"/>
<text xml:space="preserve" text-anchor="middle" x="268.56" y="-556.3" font-family="Helvetica,sans-Serif" font-size="14.00">tools/call agdf_inspect</text>
<text xml:space="preserve" text-anchor="middle" x="268.56" y="-541.3" font-family="Helvetica,sans-Serif" font-size="14.00">lesende Kontrolloperation</text>
</g>
<!-- list&#45;&gt;inspect -->
<g id="edge7" class="edge">
<title>list&#45;&gt;inspect</title>
<path fill="none" stroke="#52667a" d="M311.59,-680.1C302.9,-654.98 288.96,-614.65 279.31,-586.73"/>
<polygon fill="#52667a" stroke="#52667a" points="281.89,-586.16 276.96,-579.92 276.93,-587.87 281.89,-586.16"/>
</g>
<!-- call&#45;&gt;contract -->
<g id="edge9" class="edge">
<title>call&#45;&gt;contract</title>
<path fill="none" stroke="#52667a" d="M427.59,-595.6C441.1,-574.67 461.04,-543.78 475.83,-520.87"/>
<polygon fill="#52667a" stroke="#52667a" points="477.95,-522.42 479.82,-514.7 473.54,-519.58 477.95,-522.42"/>
</g>
<!-- evaluation -->
<g id="node11" class="node">
<title>evaluation</title>
<path fill="#ddf4ee" stroke="#2d8b7b" stroke-width="1.3" d="M394.36,-316.76C394.36,-316.76 142.75,-316.76 142.75,-316.76 136.75,-316.76 130.75,-310.76 130.75,-304.76 130.75,-304.76 130.75,-292.76 130.75,-292.76 130.75,-286.76 136.75,-280.76 142.75,-280.76 142.75,-280.76 394.36,-280.76 394.36,-280.76 400.36,-280.76 406.36,-286.76 406.36,-292.76 406.36,-292.76 406.36,-304.76 406.36,-304.76 406.36,-310.76 400.36,-316.76 394.36,-316.76"/>
<text xml:space="preserve" text-anchor="middle" x="268.56" y="-292.96" font-family="Helvetica,sans-Serif" font-size="14.00">Gemeinsame Ziel&#45; und Gate&#45;Auswertung</text>
</g>
<!-- inspect&#45;&gt;evaluation -->
<g id="edge10" class="edge">
<title>inspect&#45;&gt;evaluation</title>
<path fill="none" stroke="#52667a" d="M268.56,-530.63C268.56,-483.5 268.56,-376.16 268.56,-326.22"/>
<polygon fill="#52667a" stroke="#52667a" points="271.18,-326.33 268.56,-318.83 265.93,-326.33 271.18,-326.33"/>
<text xml:space="preserve" text-anchor="middle" x="322.93" y="-437.23" font-family="Helvetica,sans-Serif" font-size="11.00" fill="#354d61">bestehender Evaluator</text>
</g>
<!-- dispatcher -->
<g id="node10" class="node">
<title>dispatcher</title>
<path fill="#ddf4ee" stroke="#2d8b7b" stroke-width="1.3" d="M583.49,-417.68C583.49,-417.68 407.62,-417.68 407.62,-417.68 401.62,-417.68 395.62,-411.68 395.62,-405.68 395.62,-405.68 395.62,-382.4 395.62,-382.4 395.62,-376.4 401.62,-370.4 407.62,-370.4 407.62,-370.4 583.49,-370.4 583.49,-370.4 589.49,-370.4 595.49,-376.4 595.49,-382.4 595.49,-382.4 595.49,-405.68 595.49,-405.68 595.49,-411.68 589.49,-417.68 583.49,-417.68"/>
<text xml:space="preserve" text-anchor="middle" x="495.56" y="-395.74" font-family="Helvetica,sans-Serif" font-size="14.00">Ein Skill&#45;Dispatcher</text>
<text xml:space="preserve" text-anchor="middle" x="495.56" y="-380.74" font-family="Helvetica,sans-Serif" font-size="14.00">prüft Eingabe und bindet Ziel</text>
</g>
<!-- contract&#45;&gt;dispatcher -->
<g id="edge11" class="edge">
<title>contract&#45;&gt;dispatcher</title>
<path fill="none" stroke="#52667a" d="M495.56,-465.26C495.56,-453.71 495.56,-439.55 495.56,-426.97"/>
<polygon fill="#52667a" stroke="#52667a" points="498.18,-427.17 495.56,-419.67 492.93,-427.17 498.18,-427.17"/>
</g>
<!-- dispatcher&#45;&gt;evaluation -->
<g id="edge13" class="edge">
<title>dispatcher&#45;&gt;evaluation</title>
<path fill="none" stroke="#52667a" d="M439.15,-369.86C402.56,-354.83 355.27,-335.39 319.76,-320.8"/>
<polygon fill="#52667a" stroke="#52667a" points="320.79,-318.39 312.86,-317.96 318.8,-323.24 320.79,-318.39"/>
<text xml:space="preserve" text-anchor="middle" x="427.52" y="-341.95" font-family="Helvetica,sans-Serif" font-size="11.00" fill="#354d61">Ziel aufgelöst</text>
</g>
<!-- recovery -->
<g id="node15" class="node">
<title>recovery</title>
<path fill="#fce8e4" stroke="#b5675a" stroke-width="1.3" d="M778.99,-322.4C778.99,-322.4 540.12,-322.4 540.12,-322.4 534.12,-322.4 528.12,-316.4 528.12,-310.4 528.12,-310.4 528.12,-287.12 528.12,-287.12 528.12,-281.12 534.12,-275.12 540.12,-275.12 540.12,-275.12 778.99,-275.12 778.99,-275.12 784.99,-275.12 790.99,-281.12 790.99,-287.12 790.99,-287.12 790.99,-310.4 790.99,-310.4 790.99,-316.4 784.99,-322.4 778.99,-322.4"/>
<text xml:space="preserve" text-anchor="middle" x="659.56" y="-300.46" font-family="Helvetica,sans-Serif" font-size="14.00">Sicher anhalten</text>
<text xml:space="preserve" text-anchor="middle" x="659.56" y="-285.46" font-family="Helvetica,sans-Serif" font-size="14.00">Eingabe, Ziel oder Auswertung ungültig</text>
</g>
<!-- dispatcher&#45;&gt;recovery -->
<g id="edge12" class="edge">
<title>dispatcher&#45;&gt;recovery</title>
<path fill="none" stroke="#52667a" d="M536.09,-369.98C558.78,-357.08 587.2,-340.91 611.06,-327.34"/>
<polygon fill="#52667a" stroke="#52667a" points="612.09,-329.78 617.31,-323.79 609.5,-325.21 612.09,-329.78"/>
<text xml:space="preserve" text-anchor="middle" x="629.37" y="-341.95" font-family="Helvetica,sans-Serif" font-size="11.00" fill="#354d61">Fehler / Ziel offen</text>
</g>
<!-- outcome -->
<g id="node12" class="node">
<title>outcome</title>
<polygon fill="#ddf4ee" stroke="#2d8b7b" stroke-width="1.3" points="268.56,-238.12 172.53,-207.34 268.55,-176.56 364.59,-207.34 268.56,-238.12"/>
<text xml:space="preserve" text-anchor="middle" x="268.56" y="-201.74" font-family="Helvetica,sans-Serif" font-size="13.00">Ergebnistyp?</text>
</g>
<!-- evaluation&#45;&gt;outcome -->
<g id="edge15" class="edge">
<title>evaluation&#45;&gt;outcome</title>
<path fill="none" stroke="#52667a" d="M268.56,-280.52C268.56,-271.06 268.56,-258.91 268.56,-247.29"/>
<polygon fill="#52667a" stroke="#52667a" points="271.18,-247.58 268.56,-240.08 265.93,-247.58 271.18,-247.58"/>
</g>
<!-- evaluation&#45;&gt;recovery -->
<g id="edge14" class="edge">
<title>evaluation&#45;&gt;recovery</title>
<path fill="none" stroke="#52667a" d="M406.96,-298.76C443.26,-298.76 482.44,-298.76 518.86,-298.76"/>
<polygon fill="#52667a" stroke="#52667a" points="518.55,-301.39 526.05,-298.76 518.55,-296.14 518.55,-301.39"/>
<text xml:space="preserve" text-anchor="middle" x="467.24" y="-303.31" font-family="Helvetica,sans-Serif" font-size="11.00" fill="#354d61">Auswertungsfehler</text>
</g>
<!-- terminal -->
<g id="node13" class="node">
<title>terminal</title>
<path fill="#e5f0fc" stroke="#5284ad" stroke-width="1.3" d="M253.11,-128.56C253.11,-128.56 12,-128.56 12,-128.56 6,-128.56 0,-122.56 0,-116.56 0,-116.56 0,-93.28 0,-93.28 0,-87.28 6,-81.28 12,-81.28 12,-81.28 253.11,-81.28 253.11,-81.28 259.11,-81.28 265.11,-87.28 265.11,-93.28 265.11,-93.28 265.11,-116.56 265.11,-116.56 265.11,-122.56 259.11,-128.56 253.11,-128.56"/>
<text xml:space="preserve" text-anchor="middle" x="132.56" y="-106.62" font-family="Helvetica,sans-Serif" font-size="14.00">Terminales Kontrollergebnis</text>
<text xml:space="preserve" text-anchor="middle" x="132.56" y="-91.62" font-family="Helvetica,sans-Serif" font-size="14.00">unverändert zeigen und Aufruf beenden</text>
</g>
<!-- outcome&#45;&gt;terminal -->
<g id="edge16" class="edge">
<title>outcome&#45;&gt;terminal</title>
<path fill="none" stroke="#52667a" d="M240.04,-185.29C220.03,-170.51 193.03,-150.58 171.1,-134.38"/>
<polygon fill="#52667a" stroke="#52667a" points="172.69,-132.29 165.09,-129.95 169.57,-136.51 172.69,-132.29"/>
<text xml:space="preserve" text-anchor="middle" x="221.93" y="-148.11" font-family="Helvetica,sans-Serif" font-size="11.00" fill="#354d61">Kontrolle</text>
</g>
<!-- continuation -->
<g id="node14" class="node">
<title>continuation</title>
<path fill="#e5f0fc" stroke="#5284ad" stroke-width="1.3" d="M502.11,-128.56C502.11,-128.56 309,-128.56 309,-128.56 303,-128.56 297,-122.56 297,-116.56 297,-116.56 297,-93.28 297,-93.28 297,-87.28 303,-81.28 309,-81.28 309,-81.28 502.11,-81.28 502.11,-81.28 508.11,-81.28 514.11,-87.28 514.11,-93.28 514.11,-93.28 514.11,-116.56 514.11,-116.56 514.11,-122.56 508.11,-128.56 502.11,-128.56"/>
<text xml:space="preserve" text-anchor="middle" x="405.56" y="-106.62" font-family="Helvetica,sans-Serif" font-size="14.00">Begrenzter Fortsetzungsauftrag</text>
<text xml:space="preserve" text-anchor="middle" x="405.56" y="-91.62" font-family="Helvetica,sans-Serif" font-size="14.00">ein Skill + ein Ziel</text>
</g>
<!-- outcome&#45;&gt;continuation -->
<g id="edge17" class="edge">
<title>outcome&#45;&gt;continuation</title>
<path fill="none" stroke="#52667a" d="M297.27,-185.29C317.52,-170.45 344.87,-150.4 367.01,-134.17"/>
<polygon fill="#52667a" stroke="#52667a" points="368.29,-136.49 372.78,-129.94 365.18,-132.26 368.29,-136.49"/>
<text xml:space="preserve" text-anchor="middle" x="377.83" y="-148.11" font-family="Helvetica,sans-Serif" font-size="11.00" fill="#354d61">Fortsetzung</text>
</g>
<!-- note -->
<g id="node16" class="node">
<title>note</title>
<path fill="white" stroke="none" stroke-width="1.3" d="M475.36,-44.28C475.36,-44.28 61.75,-44.28 61.75,-44.28 55.75,-44.28 49.75,-38.28 49.75,-32.28 49.75,-32.28 49.75,-12 49.75,-12 49.75,-6 55.75,0 61.75,0 61.75,0 475.36,0 475.36,0 481.36,0 487.36,-6 487.36,-12 487.36,-12 487.36,-32.28 487.36,-32.28 487.36,-38.28 481.36,-44.28 475.36,-44.28"/>
<text xml:space="preserve" text-anchor="middle" x="268.56" y="-23.29" font-family="Helvetica,sans-Serif" font-size="13.00" fill="#354d61">Alle Ergebnisse: authorizes = false</text>
<text xml:space="preserve" text-anchor="middle" x="268.56" y="-9.79" font-family="Helvetica,sans-Serif" font-size="13.00" fill="#354d61">MCP&#45;Registrierung und Tool&#45;Berechtigung sind keine Gate&#45;Freigabe.</text>
</g>
<!-- terminal&#45;&gt;note -->
<!-- continuation&#45;&gt;note -->
</g>
</svg>
