<?xml version="1.0" encoding="UTF-8" standalone="no"?>
<!DOCTYPE svg PUBLIC "-//W3C//DTD SVG 1.1//EN"
 "http://www.w3.org/Graphics/SVG/1.1/DTD/svg11.dtd">
<!-- Generated by graphviz version 14.0.0 (20250921.2048)
 -->
<!-- Title: dispatch Pages: 1 -->
<svg width="1584pt" height="1445pt"
 viewBox="0.00 0.00 1584.00 1445.00" xmlns="http://www.w3.org/2000/svg" xmlns:xlink="http://www.w3.org/1999/xlink">
<g id="graph0" class="graph" transform="scale(1 1) rotate(0) translate(21.6 1423.24)">
<title>dispatch</title>
<polygon fill="white" stroke="none" points="-21.6,21.6 -21.6,-1423.24 1562.69,-1423.24 1562.69,21.6 -21.6,21.6"/>
<text xml:space="preserve" text-anchor="middle" x="305.75" y="-1376.74" font-family="Helvetica,sans-Serif" font-size="22.00" fill="#17324d">03 &#160;/ &#160;DISPATCH, RUN&#45;ZUORDNUNG UND FORTSETZUNG</text>
<!-- request -->
<g id="node1" class="node">
<title>request</title>
<path fill="#f3f6f8" stroke="#97a6b3" stroke-width="1.3" d="M592.49,-1371.14C592.49,-1371.14 447.38,-1371.14 447.38,-1371.14 441.38,-1371.14 435.38,-1365.14 435.38,-1359.14 435.38,-1359.14 435.38,-1347.14 435.38,-1347.14 435.38,-1341.14 441.38,-1335.14 447.38,-1335.14 447.38,-1335.14 592.49,-1335.14 592.49,-1335.14 598.49,-1335.14 604.49,-1341.14 604.49,-1347.14 604.49,-1347.14 604.49,-1359.14 604.49,-1359.14 604.49,-1365.14 598.49,-1371.14 592.49,-1371.14"/>
<text xml:space="preserve" text-anchor="middle" x="519.93" y="-1347.34" font-family="Helvetica,sans-Serif" font-size="14.00">Aktueller Nutzerwunsch</text>
</g>
<!-- activation -->
<g id="node2" class="node">
<title>activation</title>
<path fill="#fff2cf" stroke="#bf9840" stroke-width="1.3" d="M619.11,-1298.14C619.11,-1298.14 420.75,-1298.14 420.75,-1298.14 414.75,-1298.14 408.75,-1292.14 408.75,-1286.14 408.75,-1286.14 408.75,-1262.86 408.75,-1262.86 408.75,-1256.86 414.75,-1250.86 420.75,-1250.86 420.75,-1250.86 619.11,-1250.86 619.11,-1250.86 625.11,-1250.86 631.11,-1256.86 631.11,-1262.86 631.11,-1262.86 631.11,-1286.14 631.11,-1286.14 631.11,-1292.14 625.11,-1298.14 619.11,-1298.14"/>
<text xml:space="preserve" text-anchor="middle" x="519.93" y="-1276.2" font-family="Helvetica,sans-Serif" font-size="14.00">Agent: Anwendbarkeit beurteilen</text>
<text xml:space="preserve" text-anchor="middle" x="519.93" y="-1261.2" font-family="Helvetica,sans-Serif" font-size="14.00">Request&#45;Activation&#45;Vertrag</text>
</g>
<!-- request&#45;&gt;activation -->
<g id="edge1" class="edge">
<title>request&#45;&gt;activation</title>
<path fill="none" stroke="#52667a" d="M519.93,-1334.75C519.93,-1326.65 519.93,-1316.75 519.93,-1307.38"/>
<polygon fill="#52667a" stroke="#52667a" points="522.56,-1307.65 519.93,-1300.15 517.31,-1307.65 522.56,-1307.65"/>
</g>
<!-- normal -->
<g id="node3" class="node">
<title>normal</title>
<path fill="#f3f6f8" stroke="#97a6b3" stroke-width="1.3" d="M386.24,-1202.86C386.24,-1202.86 185.63,-1202.86 185.63,-1202.86 179.63,-1202.86 173.63,-1196.86 173.63,-1190.86 173.63,-1190.86 173.63,-1167.58 173.63,-1167.58 173.63,-1161.58 179.63,-1155.58 185.63,-1155.58 185.63,-1155.58 386.24,-1155.58 386.24,-1155.58 392.24,-1155.58 398.24,-1161.58 398.24,-1167.58 398.24,-1167.58 398.24,-1190.86 398.24,-1190.86 398.24,-1196.86 392.24,-1202.86 386.24,-1202.86"/>
<text xml:space="preserve" text-anchor="middle" x="285.93" y="-1180.92" font-family="Helvetica,sans-Serif" font-size="14.00">Normale Hilfe / Opt&#45;out / Klärung</text>
<text xml:space="preserve" text-anchor="middle" x="285.93" y="-1165.92" font-family="Helvetica,sans-Serif" font-size="14.00">kein anfragebedingter Dispatch</text>
</g>
<!-- activation&#45;&gt;normal -->
<g id="edge2" class="edge">
<title>activation&#45;&gt;normal</title>
<path fill="none" stroke="#52667a" d="M461.79,-1250.32C428.58,-1237.08 386.82,-1220.44 352.33,-1206.69"/>
<polygon fill="#52667a" stroke="#52667a" points="353.52,-1204.34 345.59,-1204 351.58,-1209.22 353.52,-1204.34"/>
<text xml:space="preserve" text-anchor="middle" x="449.19" y="-1222.41" font-family="Helvetica,sans-Serif" font-size="11.00" fill="#354d61">kein Dispatch</text>
</g>
<!-- skill -->
<g id="node4" class="node">
<title>skill</title>
<path fill="#eee7fc" stroke="#8268af" stroke-width="1.3" d="M600.74,-1202.86C600.74,-1202.86 439.13,-1202.86 439.13,-1202.86 433.13,-1202.86 427.13,-1196.86 427.13,-1190.86 427.13,-1190.86 427.13,-1167.58 427.13,-1167.58 427.13,-1161.58 433.13,-1155.58 439.13,-1155.58 439.13,-1155.58 600.74,-1155.58 600.74,-1155.58 606.74,-1155.58 612.74,-1161.58 612.74,-1167.58 612.74,-1167.58 612.74,-1190.86 612.74,-1190.86 612.74,-1196.86 606.74,-1202.86 600.74,-1202.86"/>
<text xml:space="preserve" text-anchor="middle" x="519.93" y="-1180.92" font-family="Helvetica,sans-Serif" font-size="14.00">Skill&#45;Weg</text>
<text xml:space="preserve" text-anchor="middle" x="519.93" y="-1165.92" font-family="Helvetica,sans-Serif" font-size="14.00">geprüfte Runtime&#45;Bindung</text>
</g>
<!-- activation&#45;&gt;skill -->
<g id="edge3" class="edge">
<title>activation&#45;&gt;skill</title>
<path fill="none" stroke="#52667a" d="M519.93,-1250.44C519.93,-1238.89 519.93,-1224.73 519.93,-1212.15"/>
<polygon fill="#52667a" stroke="#52667a" points="522.56,-1212.35 519.93,-1204.85 517.31,-1212.35 522.56,-1212.35"/>
<text xml:space="preserve" text-anchor="middle" x="542.81" y="-1222.41" font-family="Helvetica,sans-Serif" font-size="11.00" fill="#354d61">Skill&#45;Weg</text>
</g>
<!-- mcp -->
<g id="node5" class="node">
<title>mcp</title>
<path fill="#eee7fc" stroke="#8268af" stroke-width="1.3" d="M769.86,-1202.86C769.86,-1202.86 654,-1202.86 654,-1202.86 648,-1202.86 642,-1196.86 642,-1190.86 642,-1190.86 642,-1167.58 642,-1167.58 642,-1161.58 648,-1155.58 654,-1155.58 654,-1155.58 769.86,-1155.58 769.86,-1155.58 775.86,-1155.58 781.86,-1161.58 781.86,-1167.58 781.86,-1167.58 781.86,-1190.86 781.86,-1190.86 781.86,-1196.86 775.86,-1202.86 769.86,-1202.86"/>
<text xml:space="preserve" text-anchor="middle" x="711.93" y="-1180.92" font-family="Helvetica,sans-Serif" font-size="14.00">MCP&#45;Weg</text>
<text xml:space="preserve" text-anchor="middle" x="711.93" y="-1165.92" font-family="Helvetica,sans-Serif" font-size="14.00">tools/list · tools/call</text>
</g>
<!-- activation&#45;&gt;mcp -->
<g id="edge4" class="edge">
<title>activation&#45;&gt;mcp</title>
<path fill="none" stroke="#52667a" d="M567.39,-1250.44C594.29,-1237.37 628.09,-1220.95 656.24,-1207.28"/>
<polygon fill="#52667a" stroke="#52667a" points="657.06,-1209.8 662.65,-1204.16 654.76,-1205.08 657.06,-1209.8"/>
<text xml:space="preserve" text-anchor="middle" x="652.93" y="-1222.41" font-family="Helvetica,sans-Serif" font-size="11.00" fill="#354d61">MCP&#45;Weg</text>
</g>
<!-- contract -->
<g id="node8" class="node">
<title>contract</title>
<path fill="#fff2cf" stroke="#bf9840" stroke-width="1.3" d="M627.36,-1107.58C627.36,-1107.58 412.5,-1107.58 412.5,-1107.58 406.5,-1107.58 400.5,-1101.58 400.5,-1095.58 400.5,-1095.58 400.5,-1072.3 400.5,-1072.3 400.5,-1066.3 406.5,-1060.3 412.5,-1060.3 412.5,-1060.3 627.36,-1060.3 627.36,-1060.3 633.36,-1060.3 639.36,-1066.3 639.36,-1072.3 639.36,-1072.3 639.36,-1095.58 639.36,-1095.58 639.36,-1101.58 633.36,-1107.58 627.36,-1107.58"/>
<text xml:space="preserve" text-anchor="middle" x="519.93" y="-1085.64" font-family="Helvetica,sans-Serif" font-size="14.00">Kanonischer agdf_dispatch&#45;Vertrag</text>
<text xml:space="preserve" text-anchor="middle" x="519.93" y="-1070.64" font-family="Helvetica,sans-Serif" font-size="14.00">Eingabe · Ausgabe · Host&#45;Aktion</text>
</g>
<!-- skill&#45;&gt;contract -->
<g id="edge5" class="edge">
<title>skill&#45;&gt;contract</title>
<path fill="none" stroke="#52667a" d="M519.93,-1155.16C519.93,-1143.61 519.93,-1129.45 519.93,-1116.87"/>
<polygon fill="#52667a" stroke="#52667a" points="522.56,-1117.07 519.93,-1109.57 517.31,-1117.07 522.56,-1117.07"/>
</g>
<!-- inspect -->
<g id="node6" class="node">
<title>inspect</title>
<path fill="#ddf4ee" stroke="#2d8b7b" stroke-width="1.3" d="M917.24,-1107.58C917.24,-1107.58 680.62,-1107.58 680.62,-1107.58 674.62,-1107.58 668.62,-1101.58 668.62,-1095.58 668.62,-1095.58 668.62,-1072.3 668.62,-1072.3 668.62,-1066.3 674.62,-1060.3 680.62,-1060.3 680.62,-1060.3 917.24,-1060.3 917.24,-1060.3 923.24,-1060.3 929.24,-1066.3 929.24,-1072.3 929.24,-1072.3 929.24,-1095.58 929.24,-1095.58 929.24,-1101.58 923.24,-1107.58 917.24,-1107.58"/>
<text xml:space="preserve" text-anchor="middle" x="798.93" y="-1085.64" font-family="Helvetica,sans-Serif" font-size="14.00">agdf_inspect: eigener lesender Service</text>
<text xml:space="preserve" text-anchor="middle" x="798.93" y="-1070.64" font-family="Helvetica,sans-Serif" font-size="14.00">gemeinsame Kontrollevaluatoren</text>
</g>
<!-- mcp&#45;&gt;inspect -->
<g id="edge7" class="edge">
<title>mcp&#45;&gt;inspect</title>
<path fill="none" stroke="#52667a" d="M733.44,-1155.16C744.94,-1142.83 759.23,-1127.51 771.52,-1114.33"/>
<polygon fill="#52667a" stroke="#52667a" points="773.14,-1116.44 776.34,-1109.16 769.3,-1112.86 773.14,-1116.44"/>
<text xml:space="preserve" text-anchor="middle" x="791.01" y="-1127.13" font-family="Helvetica,sans-Serif" font-size="11.00" fill="#354d61">agdf_inspect</text>
</g>
<!-- mcp&#45;&gt;contract -->
<g id="edge6" class="edge">
<title>mcp&#45;&gt;contract</title>
<path fill="none" stroke="#52667a" d="M664.47,-1155.16C637.57,-1142.09 603.77,-1125.67 575.62,-1112"/>
<polygon fill="#52667a" stroke="#52667a" points="577.1,-1109.8 569.21,-1108.88 574.8,-1114.52 577.1,-1109.8"/>
<text xml:space="preserve" text-anchor="middle" x="660.8" y="-1127.13" font-family="Helvetica,sans-Serif" font-size="11.00" fill="#354d61">agdf_dispatch</text>
</g>
<!-- inspect_result -->
<g id="node7" class="node">
<title>inspect_result</title>
<path fill="#e5f0fc" stroke="#5284ad" stroke-width="1.3" d="M880.86,-1023.3C880.86,-1023.3 717,-1023.3 717,-1023.3 711,-1023.3 705,-1017.3 705,-1011.3 705,-1011.3 705,-988.02 705,-988.02 705,-982.02 711,-976.02 717,-976.02 717,-976.02 880.86,-976.02 880.86,-976.02 886.86,-976.02 892.86,-982.02 892.86,-988.02 892.86,-988.02 892.86,-1011.3 892.86,-1011.3 892.86,-1017.3 886.86,-1023.3 880.86,-1023.3"/>
<text xml:space="preserve" text-anchor="middle" x="798.93" y="-1001.36" font-family="Helvetica,sans-Serif" font-size="14.00">Inspect&#45;Ergebnis</text>
<text xml:space="preserve" text-anchor="middle" x="798.93" y="-986.36" font-family="Helvetica,sans-Serif" font-size="14.00">keine Delivery&#45;Fortsetzung</text>
</g>
<!-- inspect&#45;&gt;inspect_result -->
<g id="edge8" class="edge">
<title>inspect&#45;&gt;inspect_result</title>
<path fill="none" stroke="#52667a" d="M798.93,-1060.02C798.93,-1051.53 798.93,-1041.75 798.93,-1032.6"/>
<polygon fill="#52667a" stroke="#52667a" points="801.56,-1032.76 798.93,-1025.26 796.31,-1032.76 801.56,-1032.76"/>
</g>
<!-- continuation -->
<g id="node9" class="node">
<title>continuation</title>
<path fill="#ddf4ee" stroke="#2d8b7b" stroke-width="1.3" d="M664.49,-1023.3C664.49,-1023.3 375.38,-1023.3 375.38,-1023.3 369.38,-1023.3 363.38,-1017.3 363.38,-1011.3 363.38,-1011.3 363.38,-988.02 363.38,-988.02 363.38,-982.02 369.38,-976.02 375.38,-976.02 375.38,-976.02 664.49,-976.02 664.49,-976.02 670.49,-976.02 676.49,-982.02 676.49,-988.02 676.49,-988.02 676.49,-1011.3 676.49,-1011.3 676.49,-1017.3 670.49,-1023.3 664.49,-1023.3"/>
<text xml:space="preserve" text-anchor="middle" x="519.93" y="-1001.36" font-family="Helvetica,sans-Serif" font-size="14.00">Core&#45;Fortsetzungsorchestrierung</text>
<text xml:space="preserve" text-anchor="middle" x="519.93" y="-986.36" font-family="Helvetica,sans-Serif" font-size="14.00">Routing aufrufen · Ergebnis vor Ausgabe prüfen</text>
</g>
<!-- contract&#45;&gt;continuation -->
<g id="edge9" class="edge">
<title>contract&#45;&gt;continuation</title>
<path fill="none" stroke="#52667a" d="M519.93,-1060.02C519.93,-1051.53 519.93,-1041.75 519.93,-1032.6"/>
<polygon fill="#52667a" stroke="#52667a" points="522.56,-1032.76 519.93,-1025.26 517.31,-1032.76 522.56,-1032.76"/>
</g>
<!-- dispatcher -->
<g id="node10" class="node">
<title>dispatcher</title>
<path fill="#ddf4ee" stroke="#2d8b7b" stroke-width="1.3" d="M643.11,-939.02C643.11,-939.02 396.75,-939.02 396.75,-939.02 390.75,-939.02 384.75,-933.02 384.75,-927.02 384.75,-927.02 384.75,-903.74 384.75,-903.74 384.75,-897.74 390.75,-891.74 396.75,-891.74 396.75,-891.74 643.11,-891.74 643.11,-891.74 649.11,-891.74 655.11,-897.74 655.11,-903.74 655.11,-903.74 655.11,-927.02 655.11,-927.02 655.11,-933.02 649.11,-939.02 643.11,-939.02"/>
<text xml:space="preserve" text-anchor="middle" x="519.93" y="-917.08" font-family="Helvetica,sans-Serif" font-size="14.00">Lesender Dispatcher: Eingabe validieren</text>
<text xml:space="preserve" text-anchor="middle" x="519.93" y="-902.08" font-family="Helvetica,sans-Serif" font-size="14.00">Governance&#45;Ziel binden · Route liefern</text>
</g>
<!-- continuation&#45;&gt;dispatcher -->
<g id="edge10" class="edge">
<title>continuation&#45;&gt;dispatcher</title>
<path fill="none" stroke="#52667a" d="M519.93,-975.74C519.93,-967.25 519.93,-957.47 519.93,-948.32"/>
<polygon fill="#52667a" stroke="#52667a" points="522.56,-948.48 519.93,-940.98 517.31,-948.48 522.56,-948.48"/>
</g>
<!-- assignment -->
<g id="node11" class="node">
<title>assignment</title>
<path fill="#ddf4ee" stroke="#2d8b7b" stroke-width="1.3" d="M635.99,-831.74C635.99,-831.74 403.88,-831.74 403.88,-831.74 397.88,-831.74 391.88,-825.74 391.88,-819.74 391.88,-819.74 391.88,-781.46 391.88,-781.46 391.88,-775.46 397.88,-769.46 403.88,-769.46 403.88,-769.46 635.99,-769.46 635.99,-769.46 641.99,-769.46 647.99,-775.46 647.99,-781.46 647.99,-781.46 647.99,-819.74 647.99,-819.74 647.99,-825.74 641.99,-831.74 635.99,-831.74"/>
<text xml:space="preserve" text-anchor="middle" x="519.93" y="-809.8" font-family="Helvetica,sans-Serif" font-size="14.00">Run&#45;Zuordnungsbelege liefern</text>
<text xml:space="preserve" text-anchor="middle" x="519.93" y="-794.8" font-family="Helvetica,sans-Serif" font-size="14.00">resolve_delivery_run</text>
<text xml:space="preserve" text-anchor="middle" x="519.93" y="-779.8" font-family="Helvetica,sans-Serif" font-size="14.00">noch keine einzelne Gate&#45;Auswertung</text>
</g>
<!-- dispatcher&#45;&gt;assignment -->
<g id="edge12" class="edge">
<title>dispatcher&#45;&gt;assignment</title>
<path fill="none" stroke="#52667a" d="M519.93,-891.29C519.93,-876.8 519.93,-857.74 519.93,-840.92"/>
<polygon fill="#52667a" stroke="#52667a" points="522.56,-841.38 519.93,-833.88 517.31,-841.38 522.56,-841.38"/>
<text xml:space="preserve" text-anchor="middle" x="572.06" y="-863.29" font-family="Helvetica,sans-Serif" font-size="11.00" fill="#354d61">Intake: Run offen</text>
<text xml:space="preserve" text-anchor="middle" x="572.06" y="-851.29" font-family="Helvetica,sans-Serif" font-size="11.00" fill="#354d61">oder Revision veraltet</text>
</g>
<!-- evaluation -->
<g id="node13" class="node">
<title>evaluation</title>
<path fill="#ddf4ee" stroke="#2d8b7b" stroke-width="1.3" d="M984.49,-824.24C984.49,-824.24 755.38,-824.24 755.38,-824.24 749.38,-824.24 743.38,-818.24 743.38,-812.24 743.38,-812.24 743.38,-788.96 743.38,-788.96 743.38,-782.96 749.38,-776.96 755.38,-776.96 755.38,-776.96 984.49,-776.96 984.49,-776.96 990.49,-776.96 996.49,-782.96 996.49,-788.96 996.49,-788.96 996.49,-812.24 996.49,-812.24 996.49,-818.24 990.49,-824.24 984.49,-824.24"/>
<text xml:space="preserve" text-anchor="middle" x="869.93" y="-802.3" font-family="Helvetica,sans-Serif" font-size="14.00">Gemeinsamer Gate&#45;Evaluator</text>
<text xml:space="preserve" text-anchor="middle" x="869.93" y="-787.3" font-family="Helvetica,sans-Serif" font-size="14.00">aktueller Zustand · nächste Operation</text>
</g>
<!-- dispatcher&#45;&gt;evaluation -->
<g id="edge13" class="edge">
<title>dispatcher&#45;&gt;evaluation</title>
<path fill="none" stroke="#52667a" d="M623.05,-891.18C643.68,-885.92 665.1,-880.02 684.93,-873.74 726.64,-860.53 772.45,-842.69 808.06,-828.06"/>
<polygon fill="#52667a" stroke="#52667a" points="808.63,-830.66 814.56,-825.37 806.62,-825.81 808.63,-830.66"/>
<text xml:space="preserve" text-anchor="middle" x="836.63" y="-857.29" font-family="Helvetica,sans-Serif" font-size="11.00" fill="#354d61">Bindung für Auswertung vorhanden</text>
</g>
<!-- recovery -->
<g id="node16" class="node">
<title>recovery</title>
<path fill="#fce8e4" stroke="#b5675a" stroke-width="1.3" d="M271.86,-831.74C271.86,-831.74 12,-831.74 12,-831.74 6,-831.74 0,-825.74 0,-819.74 0,-819.74 0,-781.46 0,-781.46 0,-775.46 6,-769.46 12,-769.46 12,-769.46 271.86,-769.46 271.86,-769.46 277.86,-769.46 283.86,-775.46 283.86,-781.46 283.86,-781.46 283.86,-819.74 283.86,-819.74 283.86,-825.74 277.86,-831.74 271.86,-831.74"/>
<text xml:space="preserve" text-anchor="middle" x="141.93" y="-809.8" font-family="Helvetica,sans-Serif" font-size="14.00">Terminal: Befund / Recovery</text>
<text xml:space="preserve" text-anchor="middle" x="141.93" y="-794.8" font-family="Helvetica,sans-Serif" font-size="14.00">ungültige Eingabe, offenes Ziel, Integritäts&#45;</text>
<text xml:space="preserve" text-anchor="middle" x="141.93" y="-779.8" font-family="Helvetica,sans-Serif" font-size="14.00">oder Auswertungsfehler</text>
</g>
<!-- dispatcher&#45;&gt;recovery -->
<g id="edge11" class="edge">
<title>dispatcher&#45;&gt;recovery</title>
<path fill="none" stroke="#52667a" d="M442.07,-891.15C387.57,-874.89 313.96,-852.93 253.28,-834.82"/>
<polygon fill="#52667a" stroke="#52667a" points="254.19,-832.36 246.26,-832.73 252.69,-837.39 254.19,-832.36"/>
<text xml:space="preserve" text-anchor="middle" x="417.9" y="-857.29" font-family="Helvetica,sans-Serif" font-size="11.00" fill="#354d61">Fehler / Ziel offen</text>
</g>
<!-- scope -->
<g id="node12" class="node">
<title>scope</title>
<path fill="#eee7fc" stroke="#8268af" stroke-width="1.3" d="M574.99,-709.46C574.99,-709.46 354.88,-709.46 354.88,-709.46 348.88,-709.46 342.88,-703.46 342.88,-697.46 342.88,-697.46 342.88,-659.18 342.88,-659.18 342.88,-653.18 348.88,-647.18 354.88,-647.18 354.88,-647.18 574.99,-647.18 574.99,-647.18 580.99,-647.18 586.99,-653.18 586.99,-659.18 586.99,-659.18 586.99,-697.46 586.99,-697.46 586.99,-703.46 580.99,-709.46 574.99,-709.46"/>
<text xml:space="preserve" text-anchor="middle" x="464.93" y="-687.52" font-family="Helvetica,sans-Serif" font-size="14.00">Agent: vollständige URs vergleichen</text>
<text xml:space="preserve" text-anchor="middle" x="464.93" y="-672.52" font-family="Helvetica,sans-Serif" font-size="14.00">eindeutig: neuer / bestehender Run</text>
<text xml:space="preserve" text-anchor="middle" x="464.93" y="-657.52" font-family="Helvetica,sans-Serif" font-size="14.00">mehrdeutig: fachliche Frage</text>
</g>
<!-- assignment&#45;&gt;scope -->
<g id="edge14" class="edge">
<title>assignment&#45;&gt;scope</title>
<path fill="none" stroke="#52667a" d="M505.91,-768.94C498.8,-753.39 490.09,-734.34 482.53,-717.81"/>
<polygon fill="#52667a" stroke="#52667a" points="485.06,-717.03 479.55,-711.3 480.29,-719.22 485.06,-717.03"/>
</g>
<!-- assignment&#45;&gt;recovery -->
<g id="edge15" class="edge">
<title>assignment&#45;&gt;recovery</title>
<path fill="none" stroke="#52667a" stroke-dasharray="5,2" d="M391.37,-800.6C359.74,-800.6 325.58,-800.6 292.99,-800.6"/>
<polygon fill="#52667a" stroke="#52667a" points="293.31,-797.98 285.81,-800.6 293.31,-803.23 293.31,-797.98"/>
<text xml:space="preserve" text-anchor="middle" x="337.87" y="-805.15" font-family="Helvetica,sans-Serif" font-size="11.00" fill="#354d61">Bestand ungültig</text>
</g>
<!-- redispatch -->
<g id="node24" class="node">
<title>redispatch</title>
<path fill="#eee7fc" stroke="#8268af" stroke-width="1.3" d="M863.49,-157.06C863.49,-157.06 568.38,-157.06 568.38,-157.06 562.38,-157.06 556.38,-151.06 556.38,-145.06 556.38,-145.06 556.38,-106.78 556.38,-106.78 556.38,-100.78 562.38,-94.78 568.38,-94.78 568.38,-94.78 863.49,-94.78 863.49,-94.78 869.49,-94.78 875.49,-100.78 875.49,-106.78 875.49,-106.78 875.49,-145.06 875.49,-145.06 875.49,-151.06 869.49,-157.06 863.49,-157.06"/>
<text xml:space="preserve" text-anchor="middle" x="715.93" y="-135.12" font-family="Helvetica,sans-Serif" font-size="14.00">Agent: erneut denselben Dispatcher aufrufen</text>
<text xml:space="preserve" text-anchor="middle" x="715.93" y="-120.12" font-family="Helvetica,sans-Serif" font-size="14.00">aktuelle Bindung / vom Writer gelieferte Revision</text>
<text xml:space="preserve" text-anchor="middle" x="715.93" y="-105.12" font-family="Helvetica,sans-Serif" font-size="14.00">nur wie im Fortsetzungsvertrag vorgesehen</text>
</g>
<!-- scope&#45;&gt;redispatch -->
<g id="edge16" class="edge">
<title>scope:s&#45;&gt;redispatch:w</title>
<path fill="none" stroke="#52667a" d="M464.93,-647.18C464.93,-603.87 427.93,-600.35 427.93,-557.04 625.93,0 625.93,0 427.93,-235.2 427.93,-163.5 476.71,-128.69 546.73,-126.08"/>
<polygon fill="#52667a" stroke="#52667a" points="546.41,-128.71 553.86,-125.95 546.31,-123.46 546.41,-128.71"/>
<text xml:space="preserve" text-anchor="middle" x="478.18" y="-386.17" font-family="Helvetica,sans-Serif" font-size="11.00" fill="#354d61">eindeutig zugeordnet</text>
</g>
<!-- correction -->
<g id="node14" class="node">
<title>correction</title>
<path fill="#fff2cf" stroke="#bf9840" stroke-width="1.3" d="M1253.99,-709.46C1253.99,-709.46 925.88,-709.46 925.88,-709.46 919.88,-709.46 913.88,-703.46 913.88,-697.46 913.88,-697.46 913.88,-659.18 913.88,-659.18 913.88,-653.18 919.88,-647.18 925.88,-647.18 925.88,-647.18 1253.99,-647.18 1253.99,-647.18 1259.99,-647.18 1265.99,-653.18 1265.99,-659.18 1265.99,-659.18 1265.99,-697.46 1265.99,-697.46 1265.99,-703.46 1259.99,-709.46 1253.99,-709.46"/>
<text xml:space="preserve" text-anchor="middle" x="1089.93" y="-687.52" font-family="Helvetica,sans-Serif" font-size="14.00">Orchestrierung: nur validierte gebundene Fortsetzung:</text>
<text xml:space="preserve" text-anchor="middle" x="1089.93" y="-672.52" font-family="Helvetica,sans-Serif" font-size="14.00">eine fehlende Beziehung + exakter versiegelter Beleg</text>
<text xml:space="preserve" text-anchor="middle" x="1089.93" y="-657.52" font-family="Helvetica,sans-Serif" font-size="14.00">Core&#45;Writer prüft unter Lock, ergänzt Zeile + Audit</text>
</g>
<!-- evaluation&#45;&gt;correction -->
<g id="edge18" class="edge">
<title>evaluation&#45;&gt;correction</title>
<path fill="none" stroke="#52667a" d="M912.35,-776.41C944.64,-758.75 989.61,-734.17 1026.22,-714.15"/>
<polygon fill="#52667a" stroke="#52667a" points="1027.25,-716.58 1032.57,-710.68 1024.73,-711.97 1027.25,-716.58"/>
<text xml:space="preserve" text-anchor="middle" x="1090.38" y="-741.01" font-family="Helvetica,sans-Serif" font-size="11.00" fill="#354d61">interne Route: Beziehung fehlt</text>
<text xml:space="preserve" text-anchor="middle" x="1090.38" y="-729.01" font-family="Helvetica,sans-Serif" font-size="11.00" fill="#354d61">+ beauftragte gebundene Fortsetzung</text>
</g>
<!-- evaluation&#45;&gt;recovery -->
<g id="edge17" class="edge">
<title>evaluation&#45;&gt;recovery</title>
<path fill="none" stroke="#52667a" stroke-dasharray="5,2" d="M805.35,-824.87C768.68,-837.36 721.58,-851.26 678.31,-857.55 543.31,-877.19 388.26,-856.03 279.69,-834.15"/>
<polygon fill="#52667a" stroke="#52667a" points="280.33,-831.6 272.46,-832.68 279.29,-836.75 280.33,-831.6"/>
<text xml:space="preserve" text-anchor="middle" x="662.93" y="-857.29" font-family="Helvetica,sans-Serif" font-size="11.00" fill="#354d61">Fehler</text>
</g>
<!-- terminal -->
<g id="node17" class="node">
<title>terminal</title>
<path fill="#e5f0fc" stroke="#5284ad" stroke-width="1.3" d="M1110.36,-476.9C1110.36,-476.9 883.5,-476.9 883.5,-476.9 877.5,-476.9 871.5,-470.9 871.5,-464.9 871.5,-464.9 871.5,-426.62 871.5,-426.62 871.5,-420.62 877.5,-414.62 883.5,-414.62 883.5,-414.62 1110.36,-414.62 1110.36,-414.62 1116.36,-414.62 1122.36,-420.62 1122.36,-426.62 1122.36,-426.62 1122.36,-464.9 1122.36,-464.9 1122.36,-470.9 1116.36,-476.9 1110.36,-476.9"/>
<text xml:space="preserve" text-anchor="middle" x="996.93" y="-454.96" font-family="Helvetica,sans-Serif" font-size="14.00">Terminal: control_result</text>
<text xml:space="preserve" text-anchor="middle" x="996.93" y="-439.96" font-family="Helvetica,sans-Serif" font-size="14.00">kanonischen Text unverändert zeigen</text>
<text xml:space="preserve" text-anchor="middle" x="996.93" y="-424.96" font-family="Helvetica,sans-Serif" font-size="14.00">und diesen Aufruf beenden</text>
</g>
<!-- evaluation&#45;&gt;terminal -->
<g id="edge22" class="edge">
<title>evaluation&#45;&gt;terminal</title>
<path fill="none" stroke="#52667a" d="M863.96,-776.39C851.34,-721.71 827.87,-582.85 888.93,-494.9 891.93,-490.58 895.41,-486.64 899.25,-483.05"/>
<polygon fill="#52667a" stroke="#52667a" points="900.82,-485.16 904.86,-478.31 897.44,-481.15 900.82,-485.16"/>
<text xml:space="preserve" text-anchor="middle" x="902.4" y="-612.73" font-family="Helvetica,sans-Serif" font-size="11.00" fill="#354d61">Kontrollanzeige / Halt</text>
</g>
<!-- work -->
<g id="node18" class="node">
<title>work</title>
<path fill="#ddf4ee" stroke="#2d8b7b" stroke-width="1.3" d="M824.24,-476.9C824.24,-476.9 521.62,-476.9 521.62,-476.9 515.62,-476.9 509.63,-470.9 509.63,-464.9 509.63,-464.9 509.63,-426.62 509.63,-426.62 509.63,-420.62 515.62,-414.62 521.62,-414.62 521.62,-414.62 824.24,-414.62 824.24,-414.62 830.24,-414.62 836.24,-420.62 836.24,-426.62 836.24,-426.62 836.24,-464.9 836.24,-464.9 836.24,-470.9 830.24,-476.9 824.24,-476.9"/>
<text xml:space="preserve" text-anchor="middle" x="672.93" y="-454.96" font-family="Helvetica,sans-Serif" font-size="14.00">Dispatcher: begrenzten Auftrag liefern</text>
<text xml:space="preserve" text-anchor="middle" x="672.93" y="-439.96" font-family="Helvetica,sans-Serif" font-size="14.00">run_missing / ur_definition oder Skill</text>
<text xml:space="preserve" text-anchor="middle" x="672.93" y="-424.96" font-family="Helvetica,sans-Serif" font-size="14.00">Brownfield · Gate&#45;Artefakt · Umsetzung · QA · OR</text>
</g>
<!-- evaluation&#45;&gt;work -->
<g id="edge23" class="edge">
<title>evaluation&#45;&gt;work</title>
<path fill="none" stroke="#52667a" d="M742.96,-777.63C717.22,-770.64 695.4,-761.94 686.93,-751.46 654.89,-711.82 663.12,-559.48 669.17,-486.37"/>
<polygon fill="#52667a" stroke="#52667a" points="671.79,-486.64 669.81,-478.94 666.55,-486.19 671.79,-486.64"/>
<text xml:space="preserve" text-anchor="middle" x="715.82" y="-612.73" font-family="Helvetica,sans-Serif" font-size="11.00" fill="#354d61">zulässige Fortsetzung</text>
</g>
<!-- presentation -->
<g id="node21" class="node">
<title>presentation</title>
<path fill="#ddf4ee" stroke="#2d8b7b" stroke-width="1.3" d="M1402.36,-469.4C1402.36,-469.4 1163.5,-469.4 1163.5,-469.4 1157.5,-469.4 1151.5,-463.4 1151.5,-457.4 1151.5,-457.4 1151.5,-434.12 1151.5,-434.12 1151.5,-428.12 1157.5,-422.12 1163.5,-422.12 1163.5,-422.12 1402.36,-422.12 1402.36,-422.12 1408.36,-422.12 1414.36,-428.12 1414.36,-434.12 1414.36,-434.12 1414.36,-457.4 1414.36,-457.4 1414.36,-463.4 1408.36,-469.4 1402.36,-469.4"/>
<text xml:space="preserve" text-anchor="middle" x="1282.93" y="-447.46" font-family="Helvetica,sans-Serif" font-size="14.00">Dispatcher: presentation_required</text>
<text xml:space="preserve" text-anchor="middle" x="1282.93" y="-432.46" font-family="Helvetica,sans-Serif" font-size="14.00">lesende Vorschau + run&#45;present&#45;Schritt</text>
</g>
<!-- evaluation&#45;&gt;presentation -->
<g id="edge24" class="edge">
<title>evaluation&#45;&gt;presentation</title>
<path fill="none" stroke="#52667a" d="M997.02,-790.38C1105.58,-779.35 1249.11,-756.17 1280.93,-709.46 1331.67,-634.96 1288.71,-597.01 1290.93,-506.9 1291.06,-501.57 1291.37,-500.22 1290.93,-494.9 1290.49,-489.6 1289.79,-484 1288.97,-478.57"/>
<polygon fill="#52667a" stroke="#52667a" points="1291.57,-478.16 1287.77,-471.18 1286.38,-479 1291.57,-478.16"/>
<text xml:space="preserve" text-anchor="middle" x="1366.66" y="-618.73" font-family="Helvetica,sans-Serif" font-size="11.00" fill="#354d61">Gate entscheidungsbereit</text>
<text xml:space="preserve" text-anchor="middle" x="1366.66" y="-606.73" font-family="Helvetica,sans-Serif" font-size="11.00" fill="#354d61">+ Intake / Fortsetzung</text>
</g>
<!-- reevaluation -->
<g id="node15" class="node">
<title>reevaluation</title>
<path fill="#ddf4ee" stroke="#2d8b7b" stroke-width="1.3" d="M1220.74,-587.18C1220.74,-587.18 933.12,-587.18 933.12,-587.18 927.12,-587.18 921.12,-581.18 921.12,-575.18 921.12,-575.18 921.12,-536.9 921.12,-536.9 921.12,-530.9 927.12,-524.9 933.12,-524.9 933.12,-524.9 1220.74,-524.9 1220.74,-524.9 1226.74,-524.9 1232.74,-530.9 1232.74,-536.9 1232.74,-536.9 1232.74,-575.18 1232.74,-575.18 1232.74,-581.18 1226.74,-587.18 1220.74,-587.18"/>
<text xml:space="preserve" text-anchor="middle" x="1076.93" y="-565.24" font-family="Helvetica,sans-Serif" font-size="14.00">Orchestrierung nach bestätigter Korrektur:</text>
<text xml:space="preserve" text-anchor="middle" x="1076.93" y="-550.24" font-family="Helvetica,sans-Serif" font-size="14.00">lesendes Routing mit frischer Gate&#45;Auswertung</text>
<text xml:space="preserve" text-anchor="middle" x="1076.93" y="-535.24" font-family="Helvetica,sans-Serif" font-size="14.00">Freigaben und zulässiger Umfang unverändert</text>
</g>
<!-- correction&#45;&gt;reevaluation -->
<g id="edge19" class="edge">
<title>correction&#45;&gt;reevaluation</title>
<path fill="none" stroke="#52667a" d="M1086.62,-646.66C1084.97,-631.39 1082.95,-612.75 1081.19,-596.44"/>
<polygon fill="#52667a" stroke="#52667a" points="1083.82,-596.33 1080.4,-589.15 1078.6,-596.89 1083.82,-596.33"/>
<text xml:space="preserve" text-anchor="middle" x="1125.09" y="-612.73" font-family="Helvetica,sans-Serif" font-size="11.00" fill="#354d61">Commit bestätigt</text>
</g>
<!-- correction&#45;&gt;recovery -->
<g id="edge21" class="edge">
<title>correction&#45;&gt;recovery</title>
<path fill="none" stroke="#52667a" stroke-dasharray="5,2" d="M913.38,-701.55C769.09,-719.74 559.8,-746.17 376.93,-769.46 349.75,-772.92 320.81,-776.62 292.85,-780.2"/>
<polygon fill="#52667a" stroke="#52667a" points="292.82,-777.56 285.72,-781.12 293.49,-782.77 292.82,-777.56"/>
<text xml:space="preserve" text-anchor="middle" x="756.26" y="-735.01" font-family="Helvetica,sans-Serif" font-size="11.00" fill="#354d61">Commit unbestätigt / Fehler</text>
</g>
<!-- correction&#45;&gt;terminal -->
<g id="edge20" class="edge">
<title>correction&#45;&gt;terminal</title>
<path fill="none" stroke="#52667a" stroke-dasharray="5,2" d="M913.44,-669.95C792.71,-663.04 651.12,-650.5 631.93,-629.18 591.85,-584.66 764.01,-519.36 885.48,-480.15"/>
<polygon fill="#52667a" stroke="#52667a" points="885.99,-482.75 892.33,-477.95 884.39,-477.75 885.99,-482.75"/>
<text xml:space="preserve" text-anchor="middle" x="820.67" y="-551.59" font-family="Helvetica,sans-Serif" font-size="11.00" fill="#354d61">nicht geeignet / abgelehnt</text>
</g>
<!-- reevaluation&#45;&gt;terminal -->
<g id="edge25" class="edge">
<title>reevaluation&#45;&gt;terminal</title>
<path fill="none" stroke="#52667a" d="M1054.61,-524.4C1047.68,-514.93 1040.01,-504.47 1032.93,-494.9 1030.46,-491.56 1027.89,-488.1 1025.31,-484.63"/>
<polygon fill="#52667a" stroke="#52667a" points="1027.52,-483.2 1020.93,-478.76 1023.31,-486.34 1027.52,-483.2"/>
<text xml:space="preserve" text-anchor="middle" x="1071.02" y="-496.45" font-family="Helvetica,sans-Serif" font-size="11.00" fill="#354d61">Status / Halt</text>
</g>
<!-- reevaluation&#45;&gt;work -->
<g id="edge26" class="edge">
<title>reevaluation&#45;&gt;work</title>
<path fill="none" stroke="#52667a" d="M962.24,-524.3C910.31,-510.38 848.86,-493.91 795.97,-479.74"/>
<polygon fill="#52667a" stroke="#52667a" points="796.94,-477.28 789.02,-477.87 795.58,-482.35 796.94,-477.28"/>
<text xml:space="preserve" text-anchor="middle" x="939.17" y="-496.45" font-family="Helvetica,sans-Serif" font-size="11.00" fill="#354d61">zulässige Fortsetzung</text>
</g>
<!-- reevaluation&#45;&gt;presentation -->
<g id="edge27" class="edge">
<title>reevaluation&#45;&gt;presentation</title>
<path fill="none" stroke="#52667a" d="M1118.25,-524.45C1132.84,-514.36 1149.61,-503.53 1165.68,-494.9 1180.13,-487.15 1196.1,-479.83 1211.48,-473.35"/>
<polygon fill="#52667a" stroke="#52667a" points="1212.14,-475.92 1218.06,-470.62 1210.13,-471.07 1212.14,-475.92"/>
<text xml:space="preserve" text-anchor="middle" x="1226.81" y="-496.45" font-family="Helvetica,sans-Serif" font-size="11.00" fill="#354d61">Gate entscheidungsbereit</text>
</g>
<!-- note -->
<g id="node25" class="node">
<title>note</title>
<path fill="white" stroke="none" stroke-width="1.3" d="M1302.86,-57.78C1302.86,-57.78 713,-57.78 713,-57.78 707,-57.78 701,-51.78 701,-45.78 701,-45.78 701,-12 701,-12 701,-6 707,0 713,0 713,0 1302.86,0 1302.86,0 1308.86,0 1314.86,-6 1314.86,-12 1314.86,-12 1314.86,-45.78 1314.86,-45.78 1314.86,-51.78 1308.86,-57.78 1302.86,-57.78"/>
<text xml:space="preserve" text-anchor="middle" x="1007.93" y="-36.79" font-family="Helvetica,sans-Serif" font-size="13.00" fill="#354d61">Jedes Dispatcher&#45;Ergebnis: authorizes = false</text>
<text xml:space="preserve" text-anchor="middle" x="1007.93" y="-23.29" font-family="Helvetica,sans-Serif" font-size="13.00" fill="#354d61">Dispatcher bleibt lesend; Fortsetzungsorchestrierung koordiniert höchstens eine belegte Korrektur.</text>
<text xml:space="preserve" text-anchor="middle" x="1007.93" y="-9.79" font-family="Helvetica,sans-Serif" font-size="13.00" fill="#354d61">Inspect und expliziter Status bleiben lesend; Entscheidungen und Blocker bleiben sichtbar.</text>
</g>
<!-- terminal&#45;&gt;note -->
<!-- implementation -->
<g id="node19" class="node">
<title>implementation</title>
<path fill="#eee7fc" stroke="#8268af" stroke-width="1.3" d="M952.36,-366.62C952.36,-366.62 683.5,-366.62 683.5,-366.62 677.5,-366.62 671.5,-360.62 671.5,-354.62 671.5,-354.62 671.5,-316.34 671.5,-316.34 671.5,-310.34 677.5,-304.34 683.5,-304.34 683.5,-304.34 952.36,-304.34 952.36,-304.34 958.36,-304.34 964.36,-310.34 964.36,-316.34 964.36,-316.34 964.36,-354.62 964.36,-354.62 964.36,-360.62 958.36,-366.62 952.36,-366.62"/>
<text xml:space="preserve" text-anchor="middle" x="817.93" y="-344.68" font-family="Helvetica,sans-Serif" font-size="14.00">implementation: bereits erlaubte CD+Tests</text>
<text xml:space="preserve" text-anchor="middle" x="817.93" y="-329.68" font-family="Helvetica,sans-Serif" font-size="14.00">Kontrollen, Tests und Evidenz bleiben Pflicht</text>
<text xml:space="preserve" text-anchor="middle" x="817.93" y="-314.68" font-family="Helvetica,sans-Serif" font-size="14.00">Routine ohne zusätzliche Statuskarte</text>
</g>
<!-- work&#45;&gt;implementation -->
<g id="edge28" class="edge">
<title>work&#45;&gt;implementation</title>
<path fill="none" stroke="#52667a" d="M714.09,-414.02C731.46,-401.05 751.81,-385.86 769.86,-372.38"/>
<polygon fill="#52667a" stroke="#52667a" points="771.26,-374.6 775.7,-368.01 768.12,-370.4 771.26,-374.6"/>
<text xml:space="preserve" text-anchor="middle" x="803.03" y="-386.17" font-family="Helvetica,sans-Serif" font-size="11.00" fill="#354d61">Phase implementation</text>
</g>
<!-- execute -->
<g id="node20" class="node">
<title>execute</title>
<path fill="#eee7fc" stroke="#8268af" stroke-width="1.3" d="M861.61,-267.34C861.61,-267.34 570.25,-267.34 570.25,-267.34 564.25,-267.34 558.25,-261.34 558.25,-255.34 558.25,-255.34 558.25,-217.06 558.25,-217.06 558.25,-211.06 564.25,-205.06 570.25,-205.06 570.25,-205.06 861.61,-205.06 861.61,-205.06 867.61,-205.06 873.61,-211.06 873.61,-217.06 873.61,-217.06 873.61,-255.34 873.61,-255.34 873.61,-261.34 867.61,-267.34 861.61,-267.34"/>
<text xml:space="preserve" text-anchor="middle" x="715.93" y="-245.4" font-family="Helvetica,sans-Serif" font-size="14.00">Agent: gelieferte Schritte / Skill ausführen</text>
<text xml:space="preserve" text-anchor="middle" x="715.93" y="-230.4" font-family="Helvetica,sans-Serif" font-size="14.00">Schreibschritte über separate kanonische Writer</text>
<text xml:space="preserve" text-anchor="middle" x="715.93" y="-215.4" font-family="Helvetica,sans-Serif" font-size="14.00">keine Freigabe daraus ableiten</text>
</g>
<!-- work&#45;&gt;execute -->
<g id="edge30" class="edge">
<title>work&#45;&gt;execute</title>
<path fill="none" stroke="#52667a" d="M609.1,-414.16C590.92,-402.06 573.31,-386.27 563.18,-366.62 550.5,-342.02 548.05,-327.52 563.18,-304.34 571.66,-291.34 583.29,-280.85 596.36,-272.37"/>
<polygon fill="#52667a" stroke="#52667a" points="597.43,-274.79 602.48,-268.65 594.7,-270.31 597.43,-274.79"/>
<text xml:space="preserve" text-anchor="middle" x="610.06" y="-331.03" font-family="Helvetica,sans-Serif" font-size="11.00" fill="#354d61">andere Fortsetzung</text>
</g>
<!-- implementation&#45;&gt;execute -->
<g id="edge29" class="edge">
<title>implementation&#45;&gt;execute</title>
<path fill="none" stroke="#52667a" d="M785.66,-303.7C775.7,-294.2 764.64,-283.65 754.31,-273.81"/>
<polygon fill="#52667a" stroke="#52667a" points="756.33,-272.1 749.09,-268.82 752.7,-275.9 756.33,-272.1"/>
</g>
<!-- execute&#45;&gt;redispatch -->
<g id="edge31" class="edge">
<title>execute&#45;&gt;redispatch</title>
<path fill="none" stroke="#52667a" d="M715.93,-204.46C715.93,-192.59 715.93,-178.85 715.93,-166.27"/>
<polygon fill="#52667a" stroke="#52667a" points="718.56,-166.37 715.93,-158.87 713.31,-166.37 718.56,-166.37"/>
<text xml:space="preserve" text-anchor="middle" x="809.31" y="-176.61" font-family="Helvetica,sans-Serif" font-size="11.00" fill="#354d61">wenn Vertrag erneute Prüfung verlangt</text>
</g>
<!-- present -->
<g id="node22" class="node">
<title>present</title>
<path fill="#e5f0fc" stroke="#5284ad" stroke-width="1.3" d="M1406.36,-267.34C1406.36,-267.34 1095.5,-267.34 1095.5,-267.34 1089.5,-267.34 1083.5,-261.34 1083.5,-255.34 1083.5,-255.34 1083.5,-217.06 1083.5,-217.06 1083.5,-211.06 1089.5,-205.06 1095.5,-205.06 1095.5,-205.06 1406.36,-205.06 1406.36,-205.06 1412.36,-205.06 1418.36,-211.06 1418.36,-217.06 1418.36,-217.06 1418.36,-255.34 1418.36,-255.34 1418.36,-261.34 1412.36,-267.34 1406.36,-267.34"/>
<text xml:space="preserve" text-anchor="middle" x="1250.93" y="-245.4" font-family="Helvetica,sans-Serif" font-size="14.00">Agent: run&#45;present aufrufen</text>
<text xml:space="preserve" text-anchor="middle" x="1250.93" y="-230.4" font-family="Helvetica,sans-Serif" font-size="14.00">Writer bindet Präsentation an Run / Gate / Revision</text>
<text xml:space="preserve" text-anchor="middle" x="1250.93" y="-215.4" font-family="Helvetica,sans-Serif" font-size="14.00">zurückgegebenen Text unverändert zeigen</text>
</g>
<!-- presentation&#45;&gt;present -->
<g id="edge32" class="edge">
<title>presentation&#45;&gt;present</title>
<path fill="none" stroke="#52667a" d="M1279.38,-421.75C1273.97,-386.67 1263.6,-319.37 1256.98,-276.46"/>
<polygon fill="#52667a" stroke="#52667a" points="1259.6,-276.2 1255.86,-269.19 1254.41,-277 1259.6,-276.2"/>
</g>
<!-- wait -->
<g id="node23" class="node">
<title>wait</title>
<path fill="#f3f6f8" stroke="#97a6b3" stroke-width="1.3" d="M1342.49,-157.06C1342.49,-157.06 1095.38,-157.06 1095.38,-157.06 1089.38,-157.06 1083.38,-151.06 1083.38,-145.06 1083.38,-145.06 1083.38,-106.78 1083.38,-106.78 1083.38,-100.78 1089.38,-94.78 1095.38,-94.78 1095.38,-94.78 1342.49,-94.78 1342.49,-94.78 1348.49,-94.78 1354.49,-100.78 1354.49,-106.78 1354.49,-106.78 1354.49,-145.06 1354.49,-145.06 1354.49,-151.06 1348.49,-157.06 1342.49,-157.06"/>
<text xml:space="preserve" text-anchor="middle" x="1218.93" y="-135.12" font-family="Helvetica,sans-Serif" font-size="14.00">STOP: neue bewusste Antwort abwarten</text>
<text xml:space="preserve" text-anchor="middle" x="1218.93" y="-120.12" font-family="Helvetica,sans-Serif" font-size="14.00">Mensch entscheidet</text>
<text xml:space="preserve" text-anchor="middle" x="1218.93" y="-105.12" font-family="Helvetica,sans-Serif" font-size="14.00">Freigabe ist ein separater Vorgang</text>
</g>
<!-- present&#45;&gt;wait -->
<g id="edge33" class="edge">
<title>present&#45;&gt;wait</title>
<path fill="none" stroke="#52667a" d="M1241.85,-204.46C1238.3,-192.47 1234.2,-178.59 1230.45,-165.91"/>
<polygon fill="#52667a" stroke="#52667a" points="1233,-165.26 1228.36,-158.81 1227.96,-166.75 1233,-165.26"/>
</g>
<!-- wait&#45;&gt;note -->
<!-- redispatch&#45;&gt;continuation -->
<g id="edge34" class="edge">
<title>redispatch&#45;&gt;continuation</title>
<path fill="none" stroke="#52667a" stroke-dasharray="5,2" d="M875.99,-141.71C1084.47,-161.34 1423.68,-194.75 1432.93,-205.06 1558.79,-345.38 1520.05,-462.02 1432.93,-629.18 1354.76,-779.17 852.17,-917.99 627.81,-973.33"/>
<polygon fill="#52667a" stroke="#52667a" points="627.43,-970.72 620.77,-975.06 628.68,-975.82 627.43,-970.72"/>
<text xml:space="preserve" text-anchor="middle" x="1511.46" y="-551.59" font-family="Helvetica,sans-Serif" font-size="11.00" fill="#354d61">neuer Aufruf</text>
</g>
<!-- redispatch&#45;&gt;note -->
</g>
</svg>
