<?xml version="1.0" encoding="UTF-8" standalone="no"?>
<!DOCTYPE svg PUBLIC "-//W3C//DTD SVG 1.1//EN"
 "http://www.w3.org/Graphics/SVG/1.1/DTD/svg11.dtd">
<!-- Generated by graphviz version 14.0.0 (20250921.2048)
 -->
<!-- Title: distribution Pages: 1 -->
<svg width="711pt" height="483pt"
 viewBox="0.00 0.00 711.00 483.00" xmlns="http://www.w3.org/2000/svg" xmlns:xlink="http://www.w3.org/1999/xlink">
<g id="graph0" class="graph" transform="scale(1 1) rotate(0) translate(21.6 461.76)">
<title>distribution</title>
<polygon fill="white" stroke="none" points="-21.6,21.6 -21.6,-461.76 689.53,-461.76 689.53,21.6 -21.6,21.6"/>
<text xml:space="preserve" text-anchor="middle" x="212.38" y="-415.26" font-family="Helvetica,sans-Serif" font-size="22.00" fill="#17324d">04 &#160;/ &#160;VOM QUELLSTAND ZUR SITZUNG</text>
<!-- source -->
<g id="node1" class="node">
<title>source</title>
<path fill="#fff2cf" stroke="#bf9840" stroke-width="1.3" d="M230.43,-409.66C230.43,-409.66 41.25,-409.66 41.25,-409.66 35.25,-409.66 29.25,-403.66 29.25,-397.66 29.25,-397.66 29.25,-362.62 29.25,-362.62 29.25,-356.62 35.25,-350.62 41.25,-350.62 41.25,-350.62 230.43,-350.62 230.43,-350.62 236.43,-350.62 242.43,-356.62 242.43,-362.62 242.43,-362.62 242.43,-397.66 242.43,-397.66 242.43,-403.66 236.43,-409.66 230.43,-409.66"/>
<text xml:space="preserve" text-anchor="middle" x="135.84" y="-381.99" font-family="Helvetica,sans-Serif" font-size="17.00">1 &#160;Kanonische Quellen</text>
<text xml:space="preserve" text-anchor="middle" x="135.84" y="-363.99" font-family="Helvetica,sans-Serif" font-size="17.00">plugin/ und create&#45;agdf/</text>
</g>
<!-- generated -->
<g id="node2" class="node">
<title>generated</title>
<path fill="#ddf4ee" stroke="#2d8b7b" stroke-width="1.3" d="M633.81,-409.66C633.81,-409.66 431.88,-409.66 431.88,-409.66 425.88,-409.66 419.88,-403.66 419.88,-397.66 419.88,-397.66 419.88,-362.62 419.88,-362.62 419.88,-356.62 425.88,-350.62 431.88,-350.62 431.88,-350.62 633.81,-350.62 633.81,-350.62 639.81,-350.62 645.81,-356.62 645.81,-362.62 645.81,-362.62 645.81,-397.66 645.81,-397.66 645.81,-403.66 639.81,-409.66 633.81,-409.66"/>
<text xml:space="preserve" text-anchor="middle" x="532.84" y="-381.99" font-family="Helvetica,sans-Serif" font-size="17.00">2 &#160;Erzeugtes Payload</text>
<text xml:space="preserve" text-anchor="middle" x="532.84" y="-363.99" font-family="Helvetica,sans-Serif" font-size="17.00">Profil · Manifest · Runtime</text>
</g>
<!-- source&#45;&gt;generated -->
<g id="edge1" class="edge">
<title>source&#45;&gt;generated</title>
<path fill="none" stroke="#52667a" d="M243.01,-380.14C294.57,-380.14 356.64,-380.14 410.09,-380.14"/>
<polygon fill="#52667a" stroke="#52667a" points="409.76,-382.94 417.76,-380.14 409.76,-377.34 409.76,-382.94"/>
<text xml:space="preserve" text-anchor="middle" x="331.15" y="-384.29" font-family="Helvetica,sans-Serif" font-size="13.00" fill="#354d61">erzeugen</text>
</g>
<!-- package -->
<g id="node3" class="node">
<title>package</title>
<path fill="#ddf4ee" stroke="#2d8b7b" stroke-width="1.3" d="M259.68,-287.12C259.68,-287.12 12,-287.12 12,-287.12 6,-287.12 0,-281.12 0,-275.12 0,-275.12 0,-240.08 0,-240.08 0,-234.08 6,-228.08 12,-228.08 12,-228.08 259.68,-228.08 259.68,-228.08 265.68,-228.08 271.68,-234.08 271.68,-240.08 271.68,-240.08 271.68,-275.12 271.68,-275.12 271.68,-281.12 265.68,-287.12 259.68,-287.12"/>
<text xml:space="preserve" text-anchor="middle" x="135.84" y="-259.45" font-family="Helvetica,sans-Serif" font-size="17.00">3 &#160;Verteilbares Paket</text>
<text xml:space="preserve" text-anchor="middle" x="135.84" y="-241.45" font-family="Helvetica,sans-Serif" font-size="17.00">Lokal gebaut oder veröffentlicht</text>
</g>
<!-- source&#45;&gt;package -->
<!-- generated&#45;&gt;package -->
<g id="edge2" class="edge">
<title>generated&#45;&gt;package</title>
<path fill="none" stroke="#52667a" d="M436.99,-350.04C377.72,-332.04 301.61,-308.93 240.73,-290.45"/>
<polygon fill="#52667a" stroke="#52667a" points="241.78,-287.84 233.31,-288.2 240.15,-293.2 241.78,-287.84"/>
<text xml:space="preserve" text-anchor="middle" x="367.99" y="-313.27" font-family="Helvetica,sans-Serif" font-size="13.00" fill="#354d61">packen</text>
</g>
<!-- installed -->
<g id="node4" class="node">
<title>installed</title>
<path fill="#eee9ff" stroke="#8270ae" stroke-width="1.3" d="M655.56,-287.12C655.56,-287.12 410.12,-287.12 410.12,-287.12 404.12,-287.12 398.12,-281.12 398.12,-275.12 398.12,-275.12 398.12,-240.08 398.12,-240.08 398.12,-234.08 404.12,-228.08 410.12,-228.08 410.12,-228.08 655.56,-228.08 655.56,-228.08 661.56,-228.08 667.56,-234.08 667.56,-240.08 667.56,-240.08 667.56,-275.12 667.56,-275.12 667.56,-281.12 661.56,-287.12 655.56,-287.12"/>
<text xml:space="preserve" text-anchor="middle" x="532.84" y="-259.45" font-family="Helvetica,sans-Serif" font-size="17.00">4 &#160;Host&#45;Installation</text>
<text xml:space="preserve" text-anchor="middle" x="532.84" y="-241.45" font-family="Helvetica,sans-Serif" font-size="17.00">Staging · Registrierung · Cache</text>
</g>
<!-- generated&#45;&gt;installed -->
<!-- package&#45;&gt;installed -->
<g id="edge3" class="edge">
<title>package&#45;&gt;installed</title>
<path fill="none" stroke="#52667a" d="M272.19,-257.6C309.79,-257.6 350.69,-257.6 388.71,-257.6"/>
<polygon fill="#52667a" stroke="#52667a" points="388.29,-260.4 396.29,-257.6 388.29,-254.8 388.29,-260.4"/>
<text xml:space="preserve" text-anchor="middle" x="334.9" y="-261.75" font-family="Helvetica,sans-Serif" font-size="13.00" fill="#354d61">Host&#45;Adapter</text>
</g>
<!-- loaded -->
<g id="node5" class="node">
<title>loaded</title>
<path fill="#eee9ff" stroke="#8270ae" stroke-width="1.3" d="M254.81,-164.58C254.81,-164.58 16.88,-164.58 16.88,-164.58 10.88,-164.58 4.88,-158.58 4.88,-152.58 4.88,-152.58 4.88,-117.54 4.88,-117.54 4.88,-111.54 10.88,-105.54 16.88,-105.54 16.88,-105.54 254.81,-105.54 254.81,-105.54 260.81,-105.54 266.81,-111.54 266.81,-117.54 266.81,-117.54 266.81,-152.58 266.81,-152.58 266.81,-158.58 260.81,-164.58 254.81,-164.58"/>
<text xml:space="preserve" text-anchor="middle" x="135.84" y="-136.91" font-family="Helvetica,sans-Serif" font-size="17.00">5 &#160;Geladene Sitzung</text>
<text xml:space="preserve" text-anchor="middle" x="135.84" y="-118.91" font-family="Helvetica,sans-Serif" font-size="17.00">Tatsächlich verwendeter Inhalt</text>
</g>
<!-- package&#45;&gt;loaded -->
<!-- installed&#45;&gt;loaded -->
<g id="edge4" class="edge">
<title>installed&#45;&gt;loaded</title>
<path fill="none" stroke="#52667a" d="M436.99,-227.5C377.72,-209.5 301.61,-186.39 240.73,-167.91"/>
<polygon fill="#52667a" stroke="#52667a" points="241.78,-165.3 233.31,-165.66 240.15,-170.66 241.78,-165.3"/>
<text xml:space="preserve" text-anchor="middle" x="402.12" y="-190.73" font-family="Helvetica,sans-Serif" font-size="13.00" fill="#354d61">laden / neu starten</text>
</g>
<!-- observed -->
<g id="node6" class="node">
<title>observed</title>
<path fill="#e5f0fc" stroke="#5284ad" stroke-width="1.3" d="M655.93,-164.58C655.93,-164.58 409.75,-164.58 409.75,-164.58 403.75,-164.58 397.75,-158.58 397.75,-152.58 397.75,-152.58 397.75,-117.54 397.75,-117.54 397.75,-111.54 403.75,-105.54 409.75,-105.54 409.75,-105.54 655.93,-105.54 655.93,-105.54 661.93,-105.54 667.93,-111.54 667.93,-117.54 667.93,-117.54 667.93,-152.58 667.93,-152.58 667.93,-158.58 661.93,-164.58 655.93,-164.58"/>
<text xml:space="preserve" text-anchor="middle" x="532.84" y="-136.91" font-family="Helvetica,sans-Serif" font-size="17.00">6 &#160;Native Beobachtung</text>
<text xml:space="preserve" text-anchor="middle" x="532.84" y="-118.91" font-family="Helvetica,sans-Serif" font-size="17.00">Identität und Verhalten belegen</text>
</g>
<!-- installed&#45;&gt;observed -->
<!-- loaded&#45;&gt;observed -->
<g id="edge5" class="edge">
<title>loaded&#45;&gt;observed</title>
<path fill="none" stroke="#52667a" d="M267.21,-135.06C305.88,-135.06 348.4,-135.06 387.87,-135.06"/>
<polygon fill="#52667a" stroke="#52667a" points="387.79,-137.86 395.79,-135.06 387.79,-132.26 387.79,-137.86"/>
<text xml:space="preserve" text-anchor="middle" x="332.28" y="-139.21" font-family="Helvetica,sans-Serif" font-size="13.00" fill="#354d61">beobachten</text>
</g>
<!-- warning -->
<g id="node7" class="node">
<title>warning</title>
<path fill="white" stroke="none" stroke-width="1.3" d="M492.56,-54.54C492.56,-54.54 175.12,-54.54 175.12,-54.54 169.12,-54.54 163.13,-48.54 163.13,-42.54 163.13,-42.54 163.13,-12 163.13,-12 163.13,-6 169.13,0 175.13,0 175.13,0 492.56,0 492.56,0 498.56,0 504.56,-6 504.56,-12 504.56,-12 504.56,-42.54 504.56,-42.54 504.56,-48.54 498.56,-54.54 492.56,-54.54"/>
<text xml:space="preserve" text-anchor="middle" x="333.84" y="-28.77" font-family="Helvetica,sans-Serif" font-size="15.00" fill="#354d61">Gleiche Versionsnummer allein genügt nicht.</text>
<text xml:space="preserve" text-anchor="middle" x="333.84" y="-13.02" font-family="Helvetica,sans-Serif" font-size="15.00" fill="#354d61">Installation und aktive Sitzung getrennt prüfen.</text>
</g>
<!-- loaded&#45;&gt;warning -->
<!-- observed&#45;&gt;warning -->
</g>
</svg>
